<svg width="344" height="350" viewBox="0 0 344 350" fill="none" xmlns="http://www.w3.org/2000/svg">
<mask id="mask0_70_353" style="mask-type:alpha" maskUnits="userSpaceOnUse" x="0" y="0" width="344" height="350">
<ellipse cx="172" cy="175" rx="172" ry="175" fill="white"/>
</mask>
<g mask="url(#mask0_70_353)">
<path d="M224.5 70C224.5 92.0914 206.591 110 184.5 110C162.409 110 143.426 90.6982 143.426 68.6068C143.426 46.5154 161.335 28.6068 183.426 28.6068C205.517 28.6068 224.5 47.9086 224.5 70Z" fill="url(#paint0_linear_70_353)"/>
<path d="M117.5 240C31.5 197.5 35.6055 112.42 48.5 42.5L-46 204L100 378L196.5 368.5C211.37 316.396 203.5 282.5 117.5 240Z" fill="url(#paint1_linear_70_353)"/>
<path d="M188 160C86 129 105.954 30.7725 152.764 -20C152.764 -20 82.2181 24.7281 72.1101 30.0001C62.0021 35.272 27.9407 179.951 130.11 226C232.279 272.049 226.633 333.441 218.109 343.5L295.5 323C325.353 263.058 290 191 188 160Z" fill="url(#paint2_linear_70_353)"/>
<path d="M183 171.5C76.4994 128.5 95.3434 36.7724 142.154 -14.0001C142.154 -14.0001 71.6078 30.728 61.4997 36C51.3917 41.272 17.3303 185.951 119.5 232C221.669 278.049 216.022 339.441 207.499 349.5L281 335.5C310.853 275.558 289.501 214.5 183 171.5Z" fill="url(#paint3_linear_70_353)"/>
<path d="M181.926 103.607C203.465 103.607 220.926 86.1459 220.926 64.6068C220.926 57.2559 218.892 50.38 215.357 44.511C208.055 34.85 196.469 28.6068 183.426 28.6068C161.335 28.6068 143.426 46.5154 143.426 68.6068C143.426 69.5662 143.46 70.5178 143.526 71.4603C146.765 89.7312 162.725 103.607 181.926 103.607Z" fill="url(#paint4_linear_70_353)"/>
</g>
<defs>
<linearGradient id="paint0_linear_70_353" x1="170" y1="40" x2="228" y2="158" gradientUnits="userSpaceOnUse">
<stop stop-color="#AA2B6E"/>
<stop offset="0.325" stop-color="#E268AC"/>
</linearGradient>
<linearGradient id="paint1_linear_70_353" x1="22" y1="35.5" x2="274" y2="372.5" gradientUnits="userSpaceOnUse">
<stop stop-color="#0E4595"/>
<stop offset="0.24" stop-color="#1790C2"/>
<stop offset="0.87" stop-color="#1EC8E3"/>
</linearGradient>
<linearGradient id="paint2_linear_70_353" x1="-12.5" y1="-20" x2="311" y2="368" gradientUnits="userSpaceOnUse">
<stop offset="0.185" stop-color="#D15195"/>
<stop offset="0.5" stop-color="#E268AC"/>
</linearGradient>
<linearGradient id="paint3_linear_70_353" x1="22" y1="35.5" x2="274" y2="372.5" gradientUnits="userSpaceOnUse">
<stop stop-color="#0E4595"/>
<stop offset="0.24" stop-color="#1790C2"/>
<stop offset="0.87" stop-color="#1EC8E3"/>
</linearGradient>
<linearGradient id="paint4_linear_70_353" x1="151" y1="27" x2="198.5" y2="79.5" gradientUnits="userSpaceOnUse">
<stop stop-color="#0E4595"/>
<stop offset="0.495" stop-color="#199BC9"/>
<stop offset="1" stop-color="#1EC8E3"/>
</linearGradient>
</defs>
</svg>
